<svg xmlns="http://www.w3.org/2000/svg" width="90.01" height="133.631" viewBox="0 0 90.01 133.631">
    <defs>
        <style>
            .cls-1{fill:#eee}.cls-2{filter:url(#Path_230)}
        </style>
        <filter id="Path_230" width="90.01" height="133.631" x="0" y="0" filterUnits="userSpaceOnUse">
            <feOffset dx="2" dy="5"/>
            <feGaussianBlur result="blur" stdDeviation="2.5"/>
            <feFlood flood-opacity=".102"/>
            <feComposite in2="blur" operator="in"/>
            <feComposite in="SourceGraphic"/>
        </filter>
    </defs>
    <g class="cls-2">
        <path id="Path_230-2" d="M42.352 86.921H31.54V76.255q-7 11.868-18.762 11.868A18.053 18.053 0 0 1-1.8 81.062Q-7.575 74-7.575 62.209t6.148-17.651Q4.721 38.7 15.216 38.7h15.37v-3q0-15.924-12.508-15.924-7.844 0-16.324 8.112l-5.3-10.516Q6.735 5.8 19.774 5.8a20.718 20.718 0 0 1 16.271 7.136q6.307 7.136 6.307 22.458zM30.48 57.177v-6.76H17.124Q4.3 50.417 4.3 61.834q0 5.859 3.18 8.938t8.851 3.08a13.2 13.2 0 0 0 9.911-4.507q4.238-4.507 4.238-12.168zM4.668-5.917a11.4 11.4 0 0 1-1.855-6.61 11.053 11.053 0 0 1 1.855-6.535 5.49 5.49 0 0 1 4.611-2.628 5.621 5.621 0 0 1 4.664 2.629 10.831 10.831 0 0 1 1.908 6.535 11.173 11.173 0 0 1-1.908 6.61 5.587 5.587 0 0 1-4.664 2.7 5.459 5.459 0 0 1-4.611-2.701zm24.222 2.7a5.509 5.509 0 0 1-4.558-2.7 11.043 11.043 0 0 1-1.908-6.535 11.043 11.043 0 0 1 1.908-6.535 5.548 5.548 0 0 1 4.611-2.7 5.58 5.58 0 0 1 4.611 2.629 10.831 10.831 0 0 1 1.908 6.535A10.956 10.956 0 0 1 33.5-5.917a5.639 5.639 0 0 1-4.61 2.704z" class="cls-1" data-name="Path 230" transform="rotate(14 -86.267 151.836)"/>
    </g>
</svg>
