<svg xmlns="http://www.w3.org/2000/svg" width="40" height="20" viewBox="0 0 40 20">
    <defs>
        <style>
            .cls-1{fill:url(#linear-gradient)}
        </style>
        <linearGradient id="linear-gradient" x1="1" x2=".248" y1=".5" y2=".5" gradientUnits="objectBoundingBox">
            <stop offset="0" stop-color="#00247d"/>
            <stop offset="1" stop-color="#cf142b"/>
        </linearGradient>
    </defs>
    <path id="Path_120" d="M-155.729-114.636v2.432h-8.4v4.053h7.545v2.3h-7.545v4.1h8.671v2.432h-11.329v-15.312zm5.833 9v6.309h-2.523v-11.654h2.523v2.125a4.424 4.424 0 0 1 1.678-1.687 4.564 4.564 0 0 1 2.309-.613 4.524 4.524 0 0 1 3.277 1.2 4.615 4.615 0 0 1 1.25 3.483v7.141h-2.523v-6.4q0-3.22-2.748-3.22a3.354 3.354 0 0 0-2.275.843 3.092 3.092 0 0 0-.972 2.476zm23.108-5.345v10.164a5.905 5.905 0 0 1-1.723 4.633 6.38 6.38 0 0 1-4.426 1.544 7.933 7.933 0 0 1-4.887-1.643l1.194-1.862a5.951 5.951 0 0 0 3.547 1.292 4.214 4.214 0 0 0 2.838-.9 3.585 3.585 0 0 0 1.047-2.87v-1.49a4.233 4.233 0 0 1-1.61 1.643 4.57 4.57 0 0 1-2.354.613 5.154 5.154 0 0 1-3.919-1.621 5.642 5.642 0 0 1-1.532-4.031 5.642 5.642 0 0 1 1.532-4.031 5.14 5.14 0 0 1 3.908-1.621 4.674 4.674 0 0 1 3.863 1.906v-1.731zm-9.347 5.378a3.631 3.631 0 0 0 .912 2.475 3.1 3.1 0 0 0 2.455 1.041 3.291 3.291 0 0 0 2.5-1.008 3.5 3.5 0 0 0 .957-2.508 3.592 3.592 0 0 0-.968-2.541 3.261 3.261 0 0 0-2.5-1.041 3.044 3.044 0 0 0-2.444 1.073 3.754 3.754 0 0 0-.912 2.512z" class="cls-1" data-name="Path 120" transform="translate(166.788 114.637)"/>
</svg>
