<svg xmlns="http://www.w3.org/2000/svg" width="93.278" height="140.727" viewBox="0 0 93.278 140.727">
    <defs>
        <style>
            .cls-1{fill:#eee;stroke:#eee}.cls-2{filter:url(#Path_234)}
        </style>
        <filter id="Path_234" width="93.278" height="140.727" x="0" y="0" filterUnits="userSpaceOnUse">
            <feOffset dx="2" dy="5"/>
            <feGaussianBlur result="blur" stdDeviation="2.5"/>
            <feFlood flood-opacity=".102"/>
            <feComposite in2="blur" operator="in"/>
            <feComposite in="SourceGraphic"/>
        </filter>
    </defs>
    <g class="cls-2">
        <path id="Path_234-2" d="M-3.691 102.439V26q0-14 2.41-21.54A23.29 23.29 0 0 1 6.761-7.363a20.4 20.4 0 0 1 12.673-4.285q9.37 0 14.731 6.619a23.662 23.662 0 0 1 5.362 15.342 34.939 34.939 0 0 1-.975 8.034 73.833 73.833 0 0 1-3.466 10.292 90.118 90.118 0 0 0-3.141 8.57 16.58 16.58 0 0 0-.65 4.247 10.634 10.634 0 0 0 1.192 4.821q1.137 2.449 6.553 7.422 7.366 6.81 9.8 10.942a26.97 26.97 0 0 1 3.47 13.924 29.961 29.961 0 0 1-5.551 18.211q-5.551 7.575-14.217 7.575a16.384 16.384 0 0 1-11.969-5.165 32 32 0 0 1-7.691-13.276l8.394-5.51q2.708 7.116 5.416 9.871a7.971 7.971 0 0 0 5.687 2.755q4.116 0 7.041-3.979a15.334 15.334 0 0 0 2.925-9.335 14.68 14.68 0 0 0-1.733-7.346q-1.137-1.989-6.066-6.734-8.99-8.723-11.1-13.084a19.908 19.908 0 0 1-2.17-8.948 25.951 25.951 0 0 1 .731-6.045 74.982 74.982 0 0 1 3.52-9.794 84.472 84.472 0 0 0 3.656-10.1 24.29 24.29 0 0 0 .867-5.968 12.909 12.909 0 0 0-2.95-8.382 9.635 9.635 0 0 0-7.88-3.635 11.257 11.257 0 0 0-9.48 5.05Q6.057 9.776 6.057 26.61v75.828z" class="cls-1" data-name="Path 234" transform="rotate(-11 133.186 -49.699)"/>
    </g>
</svg>
