<svg xmlns="http://www.w3.org/2000/svg" width="40" height="20" viewBox="0 0 40 20">
    <defs>
        <style>
            .cls-1{fill:url(#linear-gradient)}
        </style>
        <linearGradient id="linear-gradient" x1=".5" x2=".5" y2="1" gradientUnits="objectBoundingBox">
            <stop offset="0"/>
            <stop offset=".519" stop-color="#d00"/>
            <stop offset="1" stop-color="#ffce00"/>
        </linearGradient>
    </defs>
    <path id="Path_121" d="M-4.152-3.933h2.795v6.6A7.993 7.993 0 0 1-8.06 5.68a7.851 7.851 0 0 1-6.146-2.818 10.405 10.405 0 0 1-2.474-7.127 10.492 10.492 0 0 1 2.522-7.182 7.833 7.833 0 0 1 6.1-2.873 7.954 7.954 0 0 1 5.944 2.431L-3.607-9.4a5.688 5.688 0 0 0-1.954-1.34 6.424 6.424 0 0 0-2.285-.373 5.449 5.449 0 0 0-4.216 1.892 7.145 7.145 0 0 0-1.705 4.972A7.166 7.166 0 0 0-12.109.694 5.181 5.181 0 0 0-8.1 2.558a6.394 6.394 0 0 0 3.948-1.187zm17.809 3.4H3.782a3.5 3.5 0 0 0 1.255 2.58 3.993 3.993 0 0 0 2.652.981 4.131 4.131 0 0 0 3.6-1.74L12.8 3.221A6.562 6.562 0 0 1 7.5 5.68a5.859 5.859 0 0 1-4.512-2.058A7.931 7.931 0 0 1 1.129-1.9a7.787 7.787 0 0 1 1.895-5.514 5.9 5.9 0 0 1 4.464-2.044 5.933 5.933 0 0 1 4.369 1.809 6.759 6.759 0 0 1 1.8 4.986zM3.782-2.966h7.223a3.85 3.85 0 0 0-.995-2.845 3.331 3.331 0 0 0-2.451-.994A3.827 3.827 0 0 0 4.942-5.77a3.569 3.569 0 0 0-1.16 2.804zm19.4-3.37a3.325 3.325 0 0 0-2.96 1.492 7.124 7.124 0 0 0-.995 4.006v6.3H16.57v-14.7h2.652v2.956a6.179 6.179 0 0 1 1.741-2.265 3.812 3.812 0 0 1 2.337-.911l.024 3.122z" class="cls-1" data-name="Path 121" transform="translate(16.68 14.32)"/>
</svg>
