<svg xmlns="http://www.w3.org/2000/svg" width="35" height="45" viewBox="0 0 35 45">
    <defs>
        <style>
            .cls-1{fill:#fff}.cls-2{fill:#0b1c48}.cls-3{filter:url(#Path_301)}
        </style>
        <filter id="Path_301" width="35" height="45" x="0" y="0" filterUnits="userSpaceOnUse">
            <feOffset/>
            <feGaussianBlur result="blur" stdDeviation="2.5"/>
            <feFlood flood-opacity=".161"/>
            <feComposite in2="blur" operator="in"/>
            <feComposite in="SourceGraphic"/>
        </filter>
    </defs>
    <g id="Group_508" data-name="Group 508" transform="translate(-1084.5 -537.5)">
        <g class="cls-3" transform="translate(1084.5 537.5)">
            <path id="Path_301-2" d="M5 0h10a5 5 0 0 1 5 5v20a5 5 0 0 1-5 5H5a5 5 0 0 1-5-5V5a5 5 0 0 1 5-5z" class="cls-1" data-name="Path 301" transform="translate(7.5 7.5)"/>
        </g>
        <path id="Path_237" d="M3.688 1.706H1.522V-.236a4.29 4.29 0 0 1-3.758 2.161A3.759 3.759 0 0 1-5.155.639a4.94 4.94 0 0 1-1.157-3.434 4.025 4.025 0 0 1 1.231-3.214 4.916 4.916 0 0 1 3.333-1.067h3.079v-.547q0-2.9-2.505-2.9a5.089 5.089 0 0 0-3.27 1.477l-1.062-1.915a6.375 6.375 0 0 1 4.671-2.107 4.345 4.345 0 0 1 3.259 1.3 5.691 5.691 0 0 1 1.263 4.09zM1.31-3.711v-1.231h-2.676q-2.569 0-2.569 2.079A2.054 2.054 0 0 0-3.3-1.235a2.592 2.592 0 0 0 1.773.561A2.766 2.766 0 0 0 .46-1.495a2.939 2.939 0 0 0 .85-2.216zM-3.86-15.2a1.941 1.941 0 0 1-.372-1.2 1.883 1.883 0 0 1 .372-1.2 1.128 1.128 0 0 1 .924-.479A1.156 1.156 0 0 1-2-17.6a1.848 1.848 0 0 1 .382 1.19A1.9 1.9 0 0 1-2-15.2a1.146 1.146 0 0 1-.934.492 1.118 1.118 0 0 1-.926-.492zm4.851.492a1.128 1.128 0 0 1-.913-.492A1.883 1.883 0 0 1-.3-16.392a1.883 1.883 0 0 1 .382-1.19A1.137 1.137 0 0 1 1-18.075a1.147 1.147 0 0 1 .924.479 1.848 1.848 0 0 1 .382 1.19 1.87 1.87 0 0 1-.393 1.2 1.156 1.156 0 0 1-.922.496z" class="cls-2" data-name="Path 237" transform="translate(1103.313 568.074)"/>
    </g>
</svg>
