<svg xmlns="http://www.w3.org/2000/svg" width="35" height="45" viewBox="0 0 35 45">
    <defs>
        <style>
            .cls-1{fill:#fff}.cls-2{fill:#0b1c48;stroke:#0b1c48;stroke-width:.3px}.cls-3{filter:url(#Rectangle_754)}
        </style>
        <filter id="Rectangle_754" width="35" height="45" x="0" y="0" filterUnits="userSpaceOnUse">
            <feOffset/>
            <feGaussianBlur result="blur" stdDeviation="2.5"/>
            <feFlood flood-opacity=".161"/>
            <feComposite in2="blur" operator="in"/>
            <feComposite in="SourceGraphic"/>
        </filter>
    </defs>
    <g id="Group_507" data-name="Group 507" transform="translate(-1173.5 -537.5)">
        <g class="cls-3" transform="translate(1173.5 537.5)">
            <rect id="Rectangle_754-2" width="20" height="30" class="cls-1" data-name="Rectangle 754" rx="5" transform="translate(7.5 7.5)"/>
        </g>
        <path id="Path_238" d="M-3.691 12.939V-3.535a19.17 19.17 0 0 1 .43-4.642 5.149 5.149 0 0 1 1.436-2.548 3.261 3.261 0 0 1 2.263-.923 3.006 3.006 0 0 1 2.631 1.426 5.792 5.792 0 0 1 .957 3.306 9.017 9.017 0 0 1-.174 1.732 18.3 18.3 0 0 1-.619 2.218q-.445 1.328-.561 1.847a4.263 4.263 0 0 0-.116.919A2.682 2.682 0 0 0 2.769.835a6.356 6.356 0 0 0 1.17 1.6A11.6 11.6 0 0 1 5.69 4.793a6.782 6.782 0 0 1 .619 3 7.422 7.422 0 0 1-.991 3.925 2.919 2.919 0 0 1-2.539 1.633 2.714 2.714 0 0 1-2.138-1.113A7.327 7.327 0 0 1-.732 9.377L.767 8.19a6.835 6.835 0 0 0 .967 2.127 1.342 1.342 0 0 0 1.015.594 1.489 1.489 0 0 0 1.257-.858 3.791 3.791 0 0 0 .522-2.012 3.7 3.7 0 0 0-.308-1.583 8.258 8.258 0 0 0-1.084-1.451 12.278 12.278 0 0 1-1.983-2.82A5.025 5.025 0 0 1 .767.258 6.7 6.7 0 0 1 .9-1.045a18.484 18.484 0 0 1 .629-2.111 20.8 20.8 0 0 0 .653-2.177 6.252 6.252 0 0 0 .155-1.286 3.158 3.158 0 0 0-.527-1.806A1.621 1.621 0 0 0 .4-9.208a1.941 1.941 0 0 0-1.693 1.089q-.658 1.088-.658 4.719v16.339z" class="cls-2" data-name="Path 238" transform="translate(1190.191 559.148)"/>
    </g>
</svg>
