<svg xmlns="http://www.w3.org/2000/svg" width="18.334" height="25.574" viewBox="0 0 18.334 25.574">
    <defs>
        <style>
            .cls-1{fill:#fff}
        </style>
    </defs>
    <path id="iconfinder_gift_298782" d="M9.872 87.591h7.052v-9.114H9.872zm-8.462 0h7.052v-9.114H1.41zm8.457-16.628l1.925-.277c1.848-.266 3.512-2.417 3.717-4.805s-1.124-4.1-2.968-3.837a4.742 4.742 0 0 0-3.374 3.285 4.748 4.748 0 0 0-3.374-3.287c-1.845-.266-3.176 1.453-2.969 3.839s1.87 4.537 3.717 4.805c.452.066 1.233.179 1.926.277a1.718 1.718 0 0 0-.006.222h1.41a1.718 1.718 0 0 0-.004-.222zm2.372-6.707c1-.144 1.719.785 1.606 2.076a2.811 2.811 0 0 1-2.008 2.6c-1 .143-1.719-.786-1.607-2.076a2.811 2.811 0 0 1 2.008-2.6zM6.5 68.929a2.812 2.812 0 0 1-2.008-2.6c-.112-1.291.608-2.22 1.6-2.076a2.81 2.81 0 0 1 2.01 2.6c.115 1.291-.602 2.22-1.602 2.076zm3.374 2.256v5.468h8.462v-5.467zM0 76.654h8.462v-5.468H0z" class="cls-1" transform="translate(0 -62.016)"/>
</svg>
