<svg xmlns="http://www.w3.org/2000/svg" width="71.936" height="93.943" viewBox="0 0 71.936 93.943">
    <defs>
        <style>
            .cls-1{fill:#eee}.cls-2{filter:url(#Path_231)}
        </style>
        <filter id="Path_231" width="71.936" height="93.943" x="0" y="0" filterUnits="userSpaceOnUse">
            <feOffset dx="2" dy="5"/>
            <feGaussianBlur result="blur" stdDeviation="2.5"/>
            <feFlood flood-opacity=".102"/>
            <feComposite in2="blur" operator="in"/>
            <feComposite in="SourceGraphic"/>
        </filter>
    </defs>
    <g class="cls-2">
        <path id="Path_231-2" d="M3.969-7.753a6.833 6.833 0 0 1-1.376-4.325 6.508 6.508 0 0 1 1.415-4.276 4.289 4.289 0 0 1 3.42-1.72 4.289 4.289 0 0 1 3.42 1.72 6.508 6.508 0 0 1 1.415 4.276 6.588 6.588 0 0 1-1.453 4.325 4.357 4.357 0 0 1-3.46 1.77 4.144 4.144 0 0 1-3.381-1.77zm18.006 1.77a4.25 4.25 0 0 1-3.42-1.77 6.632 6.632 0 0 1-1.415-4.276 6.632 6.632 0 0 1 1.415-4.276 4.25 4.25 0 0 1 3.42-1.77 4.289 4.289 0 0 1 3.42 1.72 6.508 6.508 0 0 1 1.415 4.276 6.706 6.706 0 0 1-1.41 4.326 4.249 4.249 0 0 1-3.425 1.77zM5.541 39.188a11.543 11.543 0 0 0 9.475 4.768 11.543 11.543 0 0 0 9.475-4.768q3.735-4.768 3.735-12.337t-3.735-12.338a11.543 11.543 0 0 0-9.475-4.768 11.543 11.543 0 0 0-9.475 4.768q-3.734 4.768-3.734 12.338t3.734 12.337zm25.2 6.783q-6.29 7.815-15.726 7.815T-.71 45.971Q-7 38.156-7 26.851T-.71 7.73Q5.581-.085 15.016-.085T30.742 7.73q6.29 7.815 6.29 19.121t-6.29 19.12z" class="cls-1" data-name="Path 231" transform="rotate(11 -100.743 128.3)"/>
    </g>
</svg>
