<svg xmlns="http://www.w3.org/2000/svg" width="27.739" height="22.5" viewBox="0 0 27.739 22.5">
    <defs>
        <style>
            .cls-1{fill:#00b0ff;fill-rule:evenodd}
        </style>
    </defs>
    <g id="Symbol_2_1" data-name="Symbol 2 – 1" transform="translate(-1295 -846)">
        <path id="Path_2" d="M46.784 24.5c10.479 0 16.182-8.63 16.182-16.182v-.77A12.527 12.527 0 0 0 65.74 4.62a12.793 12.793 0 0 1-3.236.925 6 6 0 0 0 2.466-3.082 14.136 14.136 0 0 1-3.545 1.387A5.5 5.5 0 0 0 57.264 2a5.79 5.79 0 0 0-5.7 5.7 3 3 0 0 0 .154 1.233A15.933 15.933 0 0 1 40 2.925a5.9 5.9 0 0 0-.771 2.928A6.123 6.123 0 0 0 41.7 10.63a5.2 5.2 0 0 1-2.62-.771 5.632 5.632 0 0 0 4.62 5.549 4.751 4.751 0 0 1-1.541.154 2.623 2.623 0 0 1-1.079-.154 5.838 5.838 0 0 0 5.394 4.007 11.636 11.636 0 0 1-7.089 2.466A4.267 4.267 0 0 1 38 21.726a14.546 14.546 0 0 0 8.784 2.774" class="cls-1" data-name="Path 2" transform="translate(1257 844)"/>
    </g>
</svg>
