<svg xmlns="http://www.w3.org/2000/svg" width="73.931" height="110.439" viewBox="0 0 73.931 110.439">
    <defs>
        <style>
            .cls-1{fill:#eee}.cls-2{filter:url(#Path_232)}
        </style>
        <filter id="Path_232" width="73.931" height="110.439" x="0" y="0" filterUnits="userSpaceOnUse">
            <feOffset dx="2" dy="5"/>
            <feGaussianBlur result="blur" stdDeviation="2.5"/>
            <feFlood flood-opacity=".102"/>
            <feComposite in2="blur" operator="in"/>
            <feComposite in="SourceGraphic"/>
        </filter>
    </defs>
    <g class="cls-2">
        <path id="Path_232-2" d="M-1.389-16.177a9.547 9.547 0 0 1-1.429-5.34A9.059 9.059 0 0 1-1.349-26.8 4.257 4.257 0 0 1 2.2-28.92a4.257 4.257 0 0 1 3.553 2.12 9.059 9.059 0 0 1 1.469 5.279 9.161 9.161 0 0 1-1.51 5.34 4.334 4.334 0 0 1-3.592 2.184 4.143 4.143 0 0 1-3.509-2.18zM17.3-13.993a4.237 4.237 0 0 1-3.551-2.184 9.237 9.237 0 0 1-1.469-5.279 9.237 9.237 0 0 1 1.469-5.279A4.237 4.237 0 0 1 17.3-28.92a4.257 4.257 0 0 1 3.556 2.12 9.059 9.059 0 0 1 1.469 5.279 9.348 9.348 0 0 1-1.469 5.34 4.237 4.237 0 0 1-3.556 2.188zm3.633 43.2V-5.74h9.147v64.563h-9.143V47.051a22.54 22.54 0 0 1-6.081 9.349 12.474 12.474 0 0 1-8.367 3.4q-7.347 0-11.878-6.675t-4.531-19.3V-5.74h9.143V29.7q0 17.84 9.959 17.84 4.735 0 8.245-4.672t3.51-13.656z" class="cls-1" data-name="Path 232" transform="matrix(.97 -.22 .22 .97 21.67 37.45)"/>
    </g>
</svg>
